
Complete name                    : Damage.2009.avi
Format                           : AVI

File size                        : 1.37 GiB
Duration                         : 1h 53mn
Overall bit rate                 : 1 727 Kbps

Video

Format                           : MPEG-4 Visual
Codec ID/Hint                    : XviD
Duration                         : 1h 53mn
Bit rate                         : 1 268 Kbps
Width                            : 720 pixels
Height                           : 576 pixels
Display aspect ratio             : 16:9
Stream size                      : 1.01 GiB (73%)
Writing library                  : XviD 1.1.2 (UTC 2006-11-01)

Audio

Format                           : AC-3
Duration                         : 1h 53mn
Bit rate                         : 448 Kbps
Channel(s)                       : 6 channels
Channel positions                : Front: L C R, Side: L R, LFE
Sampling rate                    : 48.0 KHz
Bit depth                        : 16 bits
Stream size                      : 364 MiB (26%)

Text #1
Language                         : Swedish

Text #2
Language                         : Norwegian

Text #3
Language                         : Finnish